<svg xmlns="http://www.w3.org/2000/svg" width="315.31" height="60.241" viewBox="0 0 315.31 60.241"><defs><style>.a{fill:#fff;}</style></defs><path class="a" d="M10693.519,3130.361a20.2,20.2,0,0,1-15.42-6.942,25.408,25.408,0,0,1,0-33.719,20.543,20.543,0,0,1,30.791,0,23.875,23.875,0,0,1,6.451,16.859,1.713,1.713,0,0,1-1.79,1.79h-38.18a20.443,20.443,0,0,0,5.8,13.091,16.649,16.649,0,0,0,12.35,5.348,18.141,18.141,0,0,0,15.962-8.128,1.846,1.846,0,0,1,2.979,2.178,22.193,22.193,0,0,1-18.724,9.522Zm-12.339-38.671a20.459,20.459,0,0,0-5.8,13.091h36.391a18.046,18.046,0,0,0-5.4-12.792,17.154,17.154,0,0,0-12.84-5.65A16.647,16.647,0,0,0,10681.18,3091.69Zm-93.961,38.671a20.2,20.2,0,0,1-15.42-6.942,25.4,25.4,0,0,1,0-33.719,20.543,20.543,0,0,1,30.791,0,23.875,23.875,0,0,1,6.451,16.859,1.714,1.714,0,0,1-1.79,1.79h-38.181a20.444,20.444,0,0,0,5.8,13.091,16.649,16.649,0,0,0,12.35,5.348,18.141,18.141,0,0,0,15.962-8.128,1.846,1.846,0,0,1,2.979,2.178,22.2,22.2,0,0,1-18.725,9.522Zm-12.35-38.671a20.443,20.443,0,0,0-5.8,13.091h36.391a18.04,18.04,0,0,0-5.4-12.792,17.154,17.154,0,0,0-12.84-5.65A16.651,16.651,0,0,0,10574.869,3091.69Zm79.029,35.3q-4.02-3.376-4.119-9.521v-31.139h-6.448a1.785,1.785,0,1,1,0-3.569h6.448V3072.35a1.785,1.785,0,1,1,3.569,0v10.411h12.2a1.785,1.785,0,1,1,0,3.569h-12.2v31.139h.011a8.413,8.413,0,0,0,3.271,6.942q3.182,2.382,8.92,2.378a1.786,1.786,0,1,1,0,3.572Q10657.915,3130.361,10653.9,3126.991Zm-28.157,0q-4.024-3.376-4.122-9.521v-31.139h-6.448a1.785,1.785,0,1,1,0-3.569h6.448V3072.35a1.785,1.785,0,1,1,3.569,0v10.411h12.2a1.785,1.785,0,1,1,0,3.569h-12.2v31.139h.011a8.413,8.413,0,0,0,3.271,6.942q3.182,2.382,8.92,2.378a1.786,1.786,0,1,1,0,3.572Q10629.755,3130.361,10625.741,3126.991Zm-147.1-3.572a25.256,25.256,0,0,1,0-33.719,20.487,20.487,0,0,1,30.74,0,25.264,25.264,0,0,1,0,33.719,20.487,20.487,0,0,1-30.74,0Zm2.479-31.139a21.73,21.73,0,0,0,0,28.559,16.938,16.938,0,0,0,25.78,0,21.7,21.7,0,0,0,0-28.559,16.939,16.939,0,0,0-25.78,0Zm46.349,34.25q-5.309-3.809-5.3-8.88a1.786,1.786,0,0,1,3.572,0c0,2.58,1.488,4.739,4.459,6.5a21.908,21.908,0,0,0,20.819,0c2.981-1.75,4.459-3.92,4.459-6.5q0-2.774-3.268-4.809a33.3,33.3,0,0,0-7.88-3.421c-3.07-.919-6.17-1.919-9.271-2.971a24.125,24.125,0,0,1-7.931-4.359,8.454,8.454,0,0,1-3.271-6.64q0-5.054,4.86-8.88a20.444,20.444,0,0,1,23.8,0c3.24,2.55,4.86,5.5,4.86,8.88a1.785,1.785,0,1,1-3.569,0q0-3.87-3.971-6.5a17.469,17.469,0,0,0-18.439,0c-2.639,1.75-3.971,3.92-3.971,6.5,0,1.849,1.092,3.459,3.272,4.809a32.369,32.369,0,0,0,7.929,3.421q4.666,1.4,9.319,3.019a24.163,24.163,0,0,1,7.88,4.41,8.38,8.38,0,0,1,3.221,6.54q0,5.054-5.3,8.88a24.513,24.513,0,0,1-26.281,0Zm-94.889-3.119a25.713,25.713,0,0,1,0-33.721,19.81,19.81,0,0,1,15.221-6.939q11.892,0,17.749,8.729a1.789,1.789,0,0,1-2.979,1.981q-4.862-7.141-14.781-7.141a16.325,16.325,0,0,0-12.689,5.95,22.011,22.011,0,0,0,0,28.562,16.325,16.325,0,0,0,12.689,5.95,17.2,17.2,0,0,0,14.781-7.731,1.975,1.975,0,0,1,1.688-.79,1.928,1.928,0,0,1,1.441.99,1.456,1.456,0,0,1-.15,1.782q-6.645,9.313-17.749,9.319A19.81,19.81,0,0,1,10432.58,3123.411Zm294.15-38.431a8.929,8.929,0,0,1,.089-12.32,8.227,8.227,0,0,1,6.079-2.54,8.776,8.776,0,0,1,8.691,8.729,8.159,8.159,0,0,1-2.55,6.06,8.484,8.484,0,0,1-6.149,2.491A8.341,8.341,0,0,1,10726.73,3084.98Z" transform="translate(-10426.28 -3070.121)"/></svg>