<svg xmlns="http://www.w3.org/2000/svg" xmlns:xlink="http://www.w3.org/1999/xlink" width="113.89" height="248.546" viewBox="0 0 113.89 248.546"><defs><style>.a{fill:#7c0026;}.b{fill:#fff;}.c{fill:url(#a);}.d{fill:url(#b);}</style><linearGradient id="a" x1="0.035" y1="0.471" x2="0.983" y2="0.598" gradientUnits="objectBoundingBox"><stop offset="0" stop-color="#a97e29"/><stop offset="0.27" stop-color="#c1912f"/><stop offset="0.289" stop-color="#c69835"/><stop offset="0.37" stop-color="#dbb34f"/><stop offset="0.441" stop-color="#e8c45e"/><stop offset="0.496" stop-color="#edca64"/><stop offset="0.55" stop-color="#e6c25c"/><stop offset="0.633" stop-color="#d6ac48"/><stop offset="0.714" stop-color="#c1912f"/><stop offset="0.995" stop-color="#a97e29"/></linearGradient><linearGradient id="b" x1="0.508" y1="-0.187" x2="0.486" y2="1.043" xlink:href="#a"/></defs><g transform="translate(-380 -586)"><path class="a" d="M363.739,202.475l-5.755-15.067h-.1l-5.765,15.067-5.7-14.947L340.7,202.469,334.949,187.4l-5.765,15.067L323.418,187.4l-5.754,15.067L311.9,187.4l-5.765,15.067L300.375,187.4l-5.765,15.067-5.754-15.07-3.331,8.729-2.42,6.339-5.742-15.025-.014-.038-5.765,15.062-5.349-14v41.066a79.82,79.82,0,0,0,47.7,73.073c1.022.449,1.247.547,2.3.967a4.247,4.247,0,0,0,1.425.324,4.365,4.365,0,0,0,1.425-.324c1.048-.425,1.281-.512,2.306-.972a79.811,79.811,0,0,0,47.686-73.068V188.467Z" transform="translate(119.719 428.391)"/><path class="b" d="M277.36,155.3l5.742,15.171,5.755-15.171,5.755,15.171,5.765-15.171,5.759,15.171L311.9,155.3l5.765,15.171,5.755-15.171,5.765,15.171,5.765-15.171,5.755,15.171,5.712-15.171,5.706,15.171,5.765-15.171,5.858,15.171,5.357-15.171V133.375c-17.26-5.709-34.245-8.909-51.419-8.933-17.168.022-34.159,3.224-51.42,8.933V155.3l5.348,15.171Z" transform="translate(119.736 461.558)"/><path class="c" d="M369.09,134.609v-1.233h-.01l-.16-.082c-17.619-5.791-34.387-8.825-51.248-8.84-16.861.022-33.629,3.056-51.248,8.84l-.161.082h-.01v1.233l.188-.067c17.628-5.831,34.386-8.88,51.23-8.9,16.845.022,33.6,3.075,51.231,8.9C368.965,134.563,369.09,134.609,369.09,134.609Z" transform="translate(119.725 461.558)"/><path class="d" d="M260.613,198.7v-63h.01a110.5,110.5,0,0,1,15.276-6.553c.331-.128.3-.192.3-.218s-.014-.113-.3-.037c-5.557,1.446-11.167,3.145-16.864,5.029l-3.491,1.153v57.593A86.171,86.171,0,0,0,270.9,241.96,81.406,81.406,0,0,0,298.011,266.3a79.726,79.726,0,0,1-37.4-67.594Zm104.418-64.778c-5.7-1.885-11.308-3.587-16.864-5.029-.286-.076-.3.012-.3.037s-.031.085.3.218a110.494,110.494,0,0,1,15.276,6.551h.01v63a79.725,79.725,0,0,1-37.4,67.6,81.409,81.409,0,0,0,27.112-24.335,86.175,86.175,0,0,0,15.356-49.293v-57.59Z" transform="translate(125.367 459.228)"/><g transform="translate(401.465 745.083)"><path class="b" d="M399.8,484.477a9.434,9.434,0,0,1,9.328,8.026,9.391,9.391,0,0,0,1.972.415,11.358,11.358,0,0,0-8.47-9.983,11.088,11.088,0,0,0-1.89-.316c-.311-.024-.628-.042-.939-.042-.349,0-.688.02-1.025.053.028.3.041.6.041.917a9.681,9.681,0,0,1-.05.986,9.371,9.371,0,0,1,1.034-.056" transform="translate(-351.54 -472.17)"/><path class="b" d="M414.248,460.584a11.351,11.351,0,0,0-11.313,10.453,11.123,11.123,0,0,1,1.89.315,9.446,9.446,0,1,1,9.423,10.031c-.322,0-.641-.017-.953-.047a9.3,9.3,0,0,1-1.97-.419,9.45,9.45,0,0,1-6.406-7.559,9.528,9.528,0,0,0-1.972-.418,11.358,11.358,0,0,0,8.467,9.986,11.879,11.879,0,0,0,1.889.314c.313.026.629.04.945.04a11.348,11.348,0,0,0,0-22.7" transform="translate(-353.737 -460.584)"/><path class="b" d="M321.641,471.076a11.348,11.348,0,1,0-11.318,12.2q.513,0,1-.042c-.018-.287-.032-.57-.032-.864,0-.351.018-.7.046-1.052a8.46,8.46,0,0,1-1.025.062,9.451,9.451,0,1,1,9.431-9.982c.008.176.027.35.027.532a9.562,9.562,0,0,1-6.459,8.957,9.3,9.3,0,0,0-.128,1.482c0,.183.017.357.028.53a11.348,11.348,0,0,0,8.4-9.927,10.42,10.42,0,0,0,.055-1.045c0-.292-.013-.577-.038-.858" transform="translate(-298.978 -460.584)"/><path class="b" d="M347.851,484.548a9.448,9.448,0,0,1,9.334,8.02,9.4,9.4,0,0,0,1.97.418A11.308,11.308,0,0,0,348.8,482.693c-.31-.024-.627-.042-.946-.042-.34,0-.669.018-1,.046.023.284.038.568.038.86a9.952,9.952,0,0,1-.055,1.045c.338-.033.677-.054,1.025-.054" transform="translate(-324.186 -472.208)"/><path class="b" d="M345.777,494.994a9.439,9.439,0,0,1-18.846-.05c-.01-.174-.028-.348-.028-.53a9.562,9.562,0,0,1,6.459-8.958,9.491,9.491,0,0,0,.128-1.482c0-.182-.015-.356-.027-.532a11.366,11.366,0,0,0-8.412,9.92c-.028.351-.046.7-.046,1.052,0,.292.017.577.032.864a11.348,11.348,0,0,0,22.629.032,11.673,11.673,0,0,1-1.888-.314" transform="translate(-312.689 -472.623)"/><path class="b" d="M362.308,495.2a8.77,8.77,0,0,1-.953-.049,9.449,9.449,0,0,1-8.379-7.972,9.349,9.349,0,0,0-1.968-.419,11.353,11.353,0,0,0,8.466,9.982,11.679,11.679,0,0,0,1.889.314c.315.027.629.04.946.04.346,0,.687-.017,1.025-.044-.024-.3-.041-.609-.041-.919,0-.337.017-.665.045-.992a9.457,9.457,0,0,1-1.025.059" transform="translate(-326.385 -474.373)"/><path class="b" d="M373.605,471.077a11.346,11.346,0,0,0-22.622.028,11.3,11.3,0,0,1,1.887.314,9.44,9.44,0,0,1,18.845-.011c.015.193.031.384.031.589a9.565,9.565,0,0,1-6.453,8.959,8.965,8.965,0,0,0-.119,1.425c0,.2.018.384.026.587a11.344,11.344,0,0,0,8.394-9.983,9.711,9.711,0,0,0,.05-.987c0-.329-.014-.614-.042-.92" transform="translate(-326.373 -460.617)"/><path class="b" d="M397.732,494.936a9.439,9.439,0,0,1-18.844.008c-.01-.2-.029-.392-.029-.587a8.978,8.978,0,0,1,.119-1.425,9.448,9.448,0,0,1,6.334-7.537,9.4,9.4,0,0,0,.119-1.422c0-.2-.015-.4-.031-.589a11.354,11.354,0,0,0-8.393,9.981c-.029.328-.045.655-.045.993,0,.306.017.614.041.919a11.345,11.345,0,0,0,22.618-.024,11.974,11.974,0,0,1-1.889-.315" transform="translate(-340.056 -472.591)"/></g><g transform="translate(401.413 646.884)"><path class="b" d="M305.3,296.206c-2.867,0-6.433,1.639-6.433,5.446v5.686c0,3.189,2.5,4.852,5,5.308l1.977,2.05h0l1.153,1.18c.314.314.7.265,1.084-.12l1.153-.94c.41-.41.41-.819.1-1.108l-.915-1.036v-.008l-2.009-2.254-.9-1.013a1.67,1.67,0,0,1-.195.017,2.4,2.4,0,0,1-2.674-2.434v-5.015a2.7,2.7,0,0,1,5.373,0l.008,5.215a2.366,2.366,0,0,1-.46,1.464.384.384,0,0,0,.031.473l1.881,2.178a.384.384,0,0,0,.544.051,4.847,4.847,0,0,0,1.445-2.037l.013-.031c.013-.036.024-.072.036-.108a3.985,3.985,0,0,0,.128-.424l.017-.073a4.719,4.719,0,0,0,.078-.471c.011-.092.017-.188.023-.283s.012-.169.014-.256c0-.049.008-.094.008-.143v-5.864C311.783,297.845,308.168,296.206,305.3,296.206ZM370.82,311.65l-3.4-4.939a5.188,5.188,0,0,0,3.349-4.794,5.253,5.253,0,0,0-1.4-3.782c-1.012-1.012-2.168-1.538-4.794-1.538h-6.072c-.555,0-.675.265-.675.7v14.433c0,.555.241.7.675.7h2.386c.433,0,.7-.145.7-.7V299.97h3.2a2.05,2.05,0,0,1,2.216,2.05,2.155,2.155,0,0,1-2.288,1.951h-.482c-.553,0-.7.265-.7.7v1.922a2.338,2.338,0,0,0,.368,1.384l2.377,3.544.128.181a1.281,1.281,0,0,0,1.2.723h2.843c.456,0,.584-.436.364-.769Zm-20.458-14.337c-.216-.506-.457-.747-.988-.747H347.06a.956.956,0,0,0-.988.747l-5.349,14.433c-.12.29-.12.675.41.675h2.529c.53,0,.723-.145.916-.723l.675-1.9h5.9l.674,1.9c.193.578.384.723.916.723h2.535c.53,0,.53-.384.41-.675Zm-3.951,9.108,1.806-5.325,1.808,5.325Zm-5.422-7.156v-2c0-.433-.145-.7-.7-.7h-11.18c-.555,0-.7.264-.7.7v2c0,.433.145.7.7.7h3.716v11.758c0,.555.265.7.7.7h2.386c.434,0,.7-.145.7-.7V299.964h3.683c.552,0,.7-.265.7-.7Zm-17.809-1.953c-.217-.506-.457-.747-.988-.747h-2.314a.956.956,0,0,0-.988.747l-5.348,14.433c-.12.29-.12.675.41.675h2.529c.53,0,.723-.145.916-.723l.675-1.9h5.9l.674,1.9c.193.578.384.723.916.723h2.53c.53,0,.53-.384.41-.675Zm-3.951,9.108,1.808-5.325,1.806,5.325Z" transform="translate(-298.868 -275.802)"/><g transform="translate(5.15 0)"><path class="b" d="M322.471,253.855v2.023c0,.439-.146.707-.706.707h-3.73v11.9c0,.561-.268.707-.707.707h-2.414c-.438,0-.707-.146-.707-.707v-11.9h-3.753c-.561,0-.706-.268-.706-.707v-2.023c0-.438.146-.707.706-.707h11.31C322.325,253.143,322.471,253.411,322.471,253.855Z" transform="translate(-309.749 -253.117)"/><path class="b" d="M354.338,266.476v2c0,.438-.147.707-.707.707H342.71c-.56,0-.707-.268-.707-.707v-14.62c0-.438.146-.707.707-.707h10.506c.56,0,.707.268.707.707v2.023c0,.439-.147.707-.707.707h-7.361v2.651h6.534c.561,0,.706.268.706.707v1.9c0,.438-.146.707-.706.707h-6.534v3.218h7.776C354.192,265.77,354.338,266.038,354.338,266.476Z" transform="translate(-326.74 -253.117)"/><path class="b" d="M386.536,269.185h-2.562c-.536,0-.732-.146-.926-.732l-.683-1.922h-5.972l-.683,1.922c-.195.585-.384.732-.926.732h-2.562c-.536,0-.536-.384-.414-.683l5.412-14.606a.966.966,0,0,1,1-.756h2.341c.537,0,.78.243,1,.756L386.94,268.5C387.073,268.8,387.073,269.185,386.536,269.185Zm-5.314-6.069-1.828-5.381-1.828,5.381Z" transform="translate(-342.408 -253.12)"/><path class="b" d="M423.111,253.8V268.45c0,.561-.268.706-.706.706h-2.341c-.438,0-.706-.146-.706-.706v-8.264l-2.434,4.265a.9.9,0,0,1-.707.512H415c-.366,0-.561-.316-.683-.512l-2.461-4.265v8.264c0,.561-.269.706-.707.706h-2.414c-.438,0-.706-.146-.706-.706V253.8c0-.438.146-.707.706-.707h2.414c.828,0,.926.536,1.121.829l3.339,6,3.364-6c.17-.293.292-.829,1.1-.829h2.341C422.963,253.093,423.111,253.358,423.111,253.8Z" transform="translate(-361.513 -253.092)"/></g></g><path class="b" d="M340.039,573.679h-4.246a.71.71,0,0,0-.665.961l3.675,9.737a.711.711,0,0,0,.665.46h4.248a.71.71,0,0,0,.665-.961l-3.678-9.737a.71.71,0,0,0-.664-.46Zm-13.6,2.064a3.409,3.409,0,0,0-3.266-2.453h-8.479a.835.835,0,0,0-.856.856v3.836a.811.811,0,0,0,.245.63.867.867,0,0,0,.611.224h1.689c0,.008.66,0,1.388,0h2a1.01,1.01,0,0,1,.847.641L324,588.224a.03.03,0,0,1-.027.04H313.317a.835.835,0,0,0-.855.856v3.836a.813.813,0,0,0,.243.632.871.871,0,0,0,.611.224h8.306c.4.013,2.086.058,3.7,0a5.7,5.7,0,0,0,3.311-1.267,7.011,7.011,0,0,0,2.3-3.459,3.972,3.972,0,0,0-.177-2.1S326.876,576.852,326.437,575.743Zm-19.205,12.5H293.366a2.647,2.647,0,0,1-1.281-1.509,6.613,6.613,0,0,1-.512-2.651v-.368a3.57,3.57,0,0,1,1.366-3.2,6.918,6.918,0,0,1,3.755-.964,9.314,9.314,0,0,1,4.02.625.6.6,0,0,1,.288.769l-1.153,3.357a.614.614,0,0,0,.57.842h4.3a.615.615,0,0,0,.569-.384c.088-.187,1.759-3.922,2.029-4.5s.492-.931.115-1.491a8.309,8.309,0,0,0-1.066-1.226,9.946,9.946,0,0,0-2.8-1.96,18.156,18.156,0,0,0-11.369-1.3,10.24,10.24,0,0,0-3.691,1.576,7.493,7.493,0,0,0-2.345,2.753,9.047,9.047,0,0,0-.875,4.16v.489a12.154,12.154,0,0,0,.327,2.834,5.906,5.906,0,0,0,.9,2.141H276.4v-4.266c0-6.45-6.041-9.225-10.9-9.225s-10.967,2.776-10.967,9.225v12.716a4.01,4.01,0,0,1-.785,2.48.641.641,0,0,0,.053.8l3.186,3.685a.662.662,0,0,0,.922.087,8.22,8.22,0,0,0,2.448-3.45c.006-.018.014-.035.022-.053.022-.06.04-.128.06-.183a6.693,6.693,0,0,0,.206-.717c.009-.041.019-.082.028-.128a7.272,7.272,0,0,0,.128-.8c.019-.156.028-.318.04-.479.01-.142.018-.287.023-.437,0-.082.013-.158.013-.242v-6.771l.008-5.991c0-2.612,1.877-4.123,4.571-4.123,2.652,0,4.53,1.511,4.53,4.123v3.471a3.995,3.995,0,0,1-4.2,4.065h-2.555v5.469a13.159,13.159,0,0,0,2.187.19c4.414,0,9.858-2.306,10.816-7.559l1.194,2.9a1.209,1.209,0,0,0,1.118.75h28.682q.815,0,.815-.734V589q0-.769-.808-.769Zm60.287-24.59a.837.837,0,0,0-.856-.856h-4.65a.812.812,0,0,0-.632.245.871.871,0,0,0-.224.611v29.3a.9.9,0,0,0,.224.591.779.779,0,0,0,.632.265h4.65a.8.8,0,0,0,.611-.265.851.851,0,0,0,.245-.591Zm-12.193,0a.874.874,0,0,0-.224-.612.769.769,0,0,0-.591-.245H349.82a.837.837,0,0,0-.856.857v24.607H335.018a.835.835,0,0,0-.855.856v3.836a.812.812,0,0,0,.243.632.872.872,0,0,0,.611.224h19.456a.9.9,0,0,0,.591-.224.782.782,0,0,0,.264-.632v-3.844Zm-14.211,7.339q.611,0,.611-.489v-1.549q0-.407-.611-.407h-2.978a1.35,1.35,0,0,1-.571-.673,2.8,2.8,0,0,1-.2-1.121,1.343,1.343,0,0,1,.469-1.183,2.563,2.563,0,0,1,1.448-.327h1.509q.53,0,.53-.407v-1.391c0-.218-.137-.354-.407-.407a5.751,5.751,0,0,0-1.2-.2q-.633-.04-1-.041-4.159,0-4.159,3.508a5.072,5.072,0,0,0,.143,1.2,3.81,3.81,0,0,0,.469,1.121h-.816a1.05,1.05,0,0,0-.428.082.29.29,0,0,0-.183.286V570.5a.412.412,0,0,0,.183.368.757.757,0,0,0,.428.128Z" transform="translate(126.37 230.663)"/></g></svg>